<?xml version="1.0" encoding="UTF-8" standalone="no"?>
<svg width="318px" height="58px" viewBox="0 0 318 58" version="1.1" xmlns="http://www.w3.org/2000/svg" xmlns:xlink="http://www.w3.org/1999/xlink" xmlns:sketch="http://www.bohemiancoding.com/sketch/ns">
    <!-- Generator: Sketch 3.3.3 (12072) - http://www.bohemiancoding.com/sketch -->
    <title>QuickDesign-Vector-Color</title>
    <desc>Created with Sketch.</desc>
    <defs>
        <rect id="path-1" x="0" y="0" width="63.6547283" height="64.909434"></rect>
        <rect id="path-3" x="0" y="0" width="63.6547283" height="64.909434"></rect>
        <rect id="path-5" x="0" y="0" width="63.6547283" height="64.909434"></rect>
        <rect id="path-7" x="0" y="0" width="63.6547283" height="64.909434"></rect>
        <rect id="path-9" x="0" y="0" width="63.6547283" height="64.909434"></rect>
        <rect id="path-11" x="0" y="0" width="63.6547283" height="64.909434"></rect>
        <rect id="path-13" x="0" y="0" width="63.6547283" height="64.909434"></rect>
        <rect id="path-15" x="0" y="0" width="63.6547283" height="64.909434"></rect>
        <rect id="path-17" x="0" y="0" width="63.6547283" height="64.909434"></rect>
        <rect id="path-19" x="0" y="0" width="63.6547283" height="64.909434"></rect>
        <rect id="path-21" x="0" y="0" width="63.6547283" height="64.909434"></rect>
        <rect id="path-23" x="0" y="0" width="63.6547283" height="64.909434"></rect>
        <rect id="path-25" x="0" y="0" width="63.6547283" height="64.909434"></rect>
    </defs>
    <g id="Page-1" stroke="none" stroke-width="1" fill="none" fill-rule="evenodd" sketch:type="MSPage">
        <g id="QuickDesign---Register" sketch:type="MSArtboardGroup" transform="translate(-135.000000, -30.000000)">
            <g id="QuickDesign-Vector-Color" sketch:type="MSLayerGroup" transform="translate(132.000000, 26.045283)">
                <g id="Group">
                    <g id="Clipped">
                        <g>
                            <mask id="mask-2" sketch:name="SVGID_1_" fill="white">
                                <use xlink:href="#path-1"></use>
                            </mask>
                            <g id="SVGID_1_"></g>
                            <path d="M60.2246113,32.919166 L60.2246113,32.919166 L60.2019245,34.0604377 L60.133234,35.1777623 L60.0179094,36.3184038 L59.8565811,37.4363585 L59.6492491,38.553683 L59.3965434,39.6710075 L59.0965736,40.7637547 L58.773917,41.8331849 L58.3819396,42.9013547 L57.9672755,43.9701547 L57.4820302,44.9910604 L56.9759887,46.0100755 L56.4447396,47.0057736 L55.8466906,47.9768943 L55.2240642,48.9246981 L54.555434,49.8479245 L53.8420604,50.721366 L53.1041094,51.5960679 L52.3434717,52.4228755 L51.5355698,53.2238453 L50.6841849,53.9769208 L49.8302792,54.7299962 L48.9328906,55.4099698 L48.0102943,56.065366 L47.0669019,56.6968151 L46.0749849,57.2797396 L45.0843283,57.8141396 L44.0690943,58.3239623 L43.032434,58.7858906 L41.9718264,59.1986642 L40.9118491,59.5629132 L39.8052377,59.9038453 L38.7225736,60.1943623 L37.6165925,60.4130377 L36.486034,60.631083 L35.357366,60.777917 L34.2280679,60.874966 L33.0994,60.9228604 L31.9688415,60.9468075 L30.8401736,60.9228604 L29.7108755,60.8264415 L28.5822075,60.7041849 L27.4516491,60.5346642 L26.3462981,60.3159887 L25.240317,60.0727358 L24.1337057,59.7570113 L23.0510415,59.4179698 L21.990434,59.004566 L20.9537736,58.5911623 L19.916483,58.1065472 L18.9025094,57.5954642 L17.9105925,57.0125396 L16.9659396,56.4289849 L16.0212868,55.7987962 L15.0986906,55.1175623 L14.2239887,54.3896943 L13.370083,53.6611962 L12.5407547,52.8835434 L11.7586906,52.0567358 L10.9974226,51.2078717 L10.2821585,50.3331698 L9.59084151,49.4345208 L8.9455283,48.5112943 L8.32353208,47.5401736 L7.74690943,46.5690528 L7.21755094,45.5733547 L6.73293585,44.5530792 L6.27226792,43.5082264 L5.88029057,42.4400566 L5.51226038,41.3712566 L5.18897358,40.2785094 L4.91232075,39.1851321 L4.68230189,38.0678075 L4.4976566,36.950483 L4.35901509,35.8337887 L4.26700755,34.6918868 L4.22100377,33.5499849 L4.22100377,32.4332906 L4.26700755,31.2913887 L4.35901509,30.1507472 L4.4976566,29.0321623 L4.68230189,27.9160981 L4.91232075,26.7981434 L5.18897358,25.7060264 L5.4889434,24.6120189 L5.85697358,23.5444792 L6.24958113,22.4750491 L6.70961887,21.4301962 L7.19360377,20.4105509 L7.72359245,19.3909057 L8.30084528,18.4185245 L8.90015472,17.4719811 L9.54483774,16.5254377 L10.2361547,15.6261585 L10.9507887,14.7520868 L11.7107962,13.9019623 L12.4953811,13.0757849 L13.3240792,12.2987623 L14.1779849,11.5456868 L15.053317,10.8411358 L15.9759132,10.1611623 L16.8966189,9.5303434 L17.8652189,8.92221132 L18.8558755,8.36449434 L19.8471623,7.82946415 L20.885083,7.36753585 L21.9444302,6.93144528 L23.0044075,6.51804151 L24.0877019,6.17836981 L25.1709962,5.86201509 L26.2776075,5.59544528 L27.3835887,5.37676981 L28.5116264,5.20598868 L29.6421849,5.08499245 L30.7708528,5.01252075 L31.9001509,4.96399623 L33.0294491,4.96399623 L34.1600075,5.03709811 L35.2886755,5.13351698 L36.4179736,5.27972075 L37.5472717,5.47444906 L38.6526226,5.7170717 L39.7604943,5.98364151 L40.8431585,6.3239434 L41.9031358,6.68819245 L42.9631132,7.10033585 L44.0004038,7.56226415 L45.0376943,8.07208679 L46.0289811,8.60774717 L46.9956906,9.19004151 L47.9416038,9.7975434 L48.8862566,10.4529396 L49.7849057,11.1574906 L50.6375509,11.8853585 L51.4908264,12.6390642 L52.2980981,13.4394038 L53.0581057,14.2662113 L53.7947962,15.1157057 L54.5100604,16.0149849 L55.1786906,16.9375811 L55.801317,17.8847547 L56.399366,18.8565057 L56.9526717,19.8276264 L57.4593434,20.8485321 L57.9439585,21.8921245 L58.3586226,22.9369774 L58.7499698,24.0057774 L59.0965736,25.0739472 L59.3965434,26.1666943 L59.6492491,27.2840189 L59.8565811,28.4013434 L60.0179094,29.5186679 L60.133234,30.6599396 L60.2019245,31.7772642 L60.2246113,32.919166 Z" id="Shape" fill="#F05323" sketch:type="MSShapeGroup" mask="url(#mask-2)"></path>
                        </g>
                        <g>
                            <mask id="mask-4" sketch:name="SVGID_1_" fill="white">
                                <use xlink:href="#path-3"></use>
                            </mask>
                            <g id="SVGID_1_"></g>
                            <path d="M60.2246113,32.919166 L60.0620226,32.9160151 L60.0387057,34.0535057 L59.9712755,35.1657887 L59.8565811,36.2988679 L59.6965132,37.4092604 L59.4898113,38.5215434 L59.2377358,39.6319358 L58.9383962,40.7196415 L58.6182604,41.7815094 L58.2288038,42.8433774 L57.8172906,43.9058755 L57.3351962,44.9192189 L56.8310453,45.9344528 L56.3035774,46.9244792 L55.7093094,47.8899283 L55.0892038,48.8326906 L54.4262453,49.7489849 L53.7147623,50.6186453 L53.8420604,50.721366 L53.7166528,50.6161245 L52.9812226,51.4883057 L52.2262566,52.3100717 L51.4240264,53.1041094 L50.5764226,53.8546642 L49.7269283,54.6033283 L48.8358415,55.2788906 L47.9170264,55.9311358 L46.9799358,56.5588038 L45.9949509,57.137317 L45.0080755,57.6698264 L43.9991434,58.1764981 L42.9700453,58.6352755 L41.9163698,59.0448981 L40.861434,59.4072566 L39.7611245,59.7462981 L38.6866528,60.0355547 L37.585083,60.2529698 L36.4608264,60.4703849 L35.3403509,60.6153283 L34.2186151,60.7117472 L33.0949887,60.7602717 L31.9688415,60.7848491 L30.8496264,60.7602717 L29.7272604,60.6638528 L28.603634,60.5428566 L27.4793774,60.373966 L26.3790679,60.1565509 L25.2800189,59.9145585 L24.1816,59.6013547 L23.1052377,59.2635736 L22.0496717,58.8520604 L21.018683,58.4418075 L19.9876943,57.959083 L18.9806528,57.4524113 L17.9944075,56.8726377 L17.054166,56.292234 L16.1151849,55.664566 L15.1995208,54.989634 L14.3292302,54.2642868 L13.4791057,53.5395698 L12.6560792,52.7675887 L11.8777962,51.947083 L11.1203094,51.1013698 L10.4100868,50.2310792 L9.72192075,49.3381019 L9.08101887,48.4218075 L8.46280377,47.4550981 L7.88870189,46.4890189 L7.36375472,45.4996226 L6.88103019,44.4856491 L6.42288302,43.4470981 L6.03468679,42.3858604 L5.66728679,41.3214717 L5.34652075,40.2356566 L5.0711283,39.1492113 L4.84236981,38.0375585 L4.65898491,36.927166 L4.52160377,35.8167736 L4.42959623,34.6811736 L4.38359245,33.5474642 L4.38359245,32.4358113 L4.42959623,31.3021019 L4.52160377,30.1671321 L4.65898491,29.0561094 L4.84236981,27.9450868 L5.07049811,26.8359547 L5.34715094,25.7469887 L5.64523019,24.6605434 L6.012,23.5986755 L6.40082642,22.5361774 L6.8583434,21.4988868 L7.33980755,20.4836528 L7.86664528,19.4703094 L8.43948679,18.5036 L9.03564528,17.5614679 L9.67717736,16.6205962 L10.3634528,15.7276189 L11.0749358,14.8579585 L11.8311623,14.0109849 L12.6100755,13.1917396 L13.4343623,12.4191283 L14.281966,11.6704642 L15.1522566,10.9709547 L16.0704415,10.2947623 L16.9861057,9.66646415 L17.949034,9.0627434 L18.9340189,8.50754717 L19.9190038,7.97629811 L20.9487321,7.51878113 L22.0061887,7.08269057 L23.0586038,6.67306792 L24.1355962,6.33402642 L25.2138491,6.02019245 L26.3116377,5.75488302 L27.411317,5.53746792 L28.533683,5.36857736 L29.6560491,5.24758113 L30.7803057,5.17510943 L31.9039321,5.12658491 L33.0250377,5.12658491 L34.1467736,5.19968679 L35.2716604,5.29547547 L36.3933962,5.44041887 L37.5157623,5.63388679 L38.6167019,5.87524906 L39.7157509,6.14055849 L40.7921132,6.4796 L41.8470491,6.84069811 L42.9000943,7.25095094 L43.931083,7.71035849 L44.9633321,8.21703019 L45.948317,8.74827925 L46.9093547,9.32805283 L47.8508566,9.93240377 L48.7892075,10.5840189 L49.6815547,11.2828981 L50.5310491,12.0095057 L51.3786528,12.7569094 L52.180883,13.5528377 L52.9364792,14.3746038 L53.6700189,15.220317 L54.3802415,16.1132943 L55.0444604,17.0295887 L55.6639358,17.9729811 L56.2594642,18.9396906 L56.8089887,19.9051396 L57.3125094,20.9191132 L57.7939736,21.9564038 L58.2054868,22.9943245 L58.5955736,24.0587132 L58.9390264,25.1205811 L59.2377358,26.205766 L59.4898113,27.3161585 L59.6965132,28.4284415 L59.8565811,29.538834 L59.9712755,30.6731736 L60.0393358,31.7841962 L60.0620226,32.922317 L60.2246113,32.919166 L60.0620226,32.9160151 L60.2246113,32.919166 L60.3884604,32.9160151 L60.3651434,31.7703321 L60.2964528,30.6473358 L60.1804981,29.4991321 L60.0166491,28.3742453 L59.8086868,27.2512491 L59.5540906,26.1276226 L59.2522302,25.0273132 L58.9049962,23.9528415 L58.5111283,22.8783698 L58.0933132,21.8284755 L57.6055472,20.7766906 L57.0976151,19.7513736 L56.5398981,18.7733208 L55.9393283,17.7984189 L55.3129208,16.8443132 L54.6398792,15.9160453 L53.9214642,15.0117245 L53.1797321,14.1578189 L52.414683,13.3266 L51.6017396,12.5199585 L50.744683,11.7631019 L49.8882566,11.0308226 L48.9833057,10.3218604 L48.0317208,9.66205283 L47.0813962,9.0514 L46.1096453,8.46595472 L45.1120566,7.9271434 L44.0690943,7.41543019 L43.0255019,6.94972075 L41.9592226,6.53568679 L40.894834,6.16891698 L39.8039774,5.82735472 L38.6891736,5.55826415 L37.5775208,5.31438113 L36.4419208,5.11839245 L35.3056906,4.97155849 L34.1713509,4.87387925 L33.0338604,4.80077736 L31.8963698,4.80077736 L30.7626604,4.84993208 L29.6283208,4.92240377 L28.4908302,5.04466038 L27.3552302,5.21544151 L26.242317,5.43600755 L25.1287736,5.70446792 L24.0410679,6.02208302 L22.9502113,6.36427547 L21.8839321,6.77956981 L20.8208038,7.21818113 L19.7753208,7.68389057 L18.7764717,8.22081132 L17.782034,8.78230943 L16.8077623,9.39359245 L15.8813849,10.0281925 L14.9537472,10.7125774 L14.0727434,11.4209094 L13.2144264,12.177766 L12.3800566,12.9598302 L11.5910604,13.7910491 L10.8266415,14.6455849 L10.1094868,15.5246981 L9.4131283,16.4290189 L8.76340377,17.3824943 L8.16220377,18.3328189 L7.5818,19.3108717 L7.0474,20.3380792 L6.56152453,21.3633962 L6.09770566,22.4139208 L5.70446792,23.4890226 L5.3326566,24.5641245 L5.03079623,25.6650642 L4.75351321,26.7615925 L4.52160377,27.8864792 L4.3363283,29.0088453 L4.1970566,30.1331019 L4.10378868,31.2819358 L4.05778491,32.4301396 L4.05778491,33.5531358 L4.10378868,34.7019698 L4.1970566,35.8508038 L4.3363283,36.9738 L4.52160377,38.0980566 L4.75288302,39.221683 L5.03142642,40.3207321 L5.35660377,41.4216717 L5.72652453,42.4936226 L6.12102264,43.5693547 L6.58421132,44.6205094 L7.07134717,45.6464566 L7.60448679,46.6490868 L8.18426038,47.6265094 L8.80940755,48.6020415 L9.45976226,49.5315698 L10.1548604,50.4352604 L10.8732755,51.3137434 L11.6376943,52.1689094 L12.4254302,52.9988679 L13.2616906,53.7828226 L14.1187472,54.5144717 L14.9984906,55.2467509 L15.9280189,55.931766 L16.8777132,56.566366 L17.8267774,57.1524415 L18.8237358,57.7391472 L19.8446415,58.2521208 L20.888234,58.740517 L21.9299358,59.1558113 L22.9962151,59.5711057 L24.0864415,59.9132981 L25.1999849,60.2315434 L26.3122679,60.4760566 L27.4232906,60.6959925 L28.5620415,60.8661434 L29.6963811,60.9871396 L30.8313509,61.0867094 L31.9688415,61.1106566 L33.1050717,61.0867094 L34.2387811,61.0369245 L35.3743811,60.9392453 L36.5125019,60.7924113 L37.6481019,60.5731057 L38.7597547,60.3531698 L39.8506113,60.0601321 L40.9622642,59.7173094 L42.0279132,59.3511698 L43.0948226,58.9358755 L44.1384151,58.4714264 L45.1586906,57.959083 L46.1550189,57.4215321 L47.1532377,56.8348264 L48.1029321,56.1995962 L49.0286792,55.5404189 L49.9336302,54.8554038 L50.7919472,54.0985472 L51.6477434,53.3435811 L52.4600566,52.5363094 L53.2257358,51.7038302 L53.9668377,50.8259774 L54.6852528,49.9474943 L55.3582943,49.017966 L55.9847019,48.0651208 L56.5865321,47.0870679 L57.1203019,46.0850679 L57.6294943,45.0603811 L58.1172604,44.0350642 L58.5331849,42.9599623 L58.9283132,41.8848604 L59.2522302,40.8091283 L59.5540906,39.7113396 L59.8086868,38.5864528 L60.0166491,37.4640868 L60.1804981,36.3392 L60.2964528,35.1909962 L60.3651434,34.0673698 L60.3884604,32.9185358 L60.3884604,32.9160151 L60.2246113,32.919166 Z" id="Shape" fill="#F26631" sketch:type="MSShapeGroup" mask="url(#mask-4)"></path>
                        </g>
                        <g>
                            <mask id="mask-6" sketch:name="SVGID_1_" fill="white">
                                <use xlink:href="#path-5"></use>
                            </mask>
                            <g id="SVGID_1_"></g>
                            <path d="M60.2246113,32.919166 L60.2283925,32.7464943 L60.0651736,32.7433434 L59.8931321,32.7401925 L59.8666642,34.0465736 L59.799234,35.1519245 L59.6851698,36.2780717 L59.5257321,37.3809019 L59.3209208,38.486883 L59.0701057,39.5897132 L58.7732868,40.6717472 L58.4544113,41.726683 L58.0681057,42.7822491 L57.6591132,43.8371849 L57.1795396,44.8442264 L56.6772792,45.8556792 L56.1529623,46.8387736 L55.5637358,47.7979208 L54.9474113,48.7343811 L54.2888642,49.6431132 L53.4721396,50.6432226 L53.7330377,50.8555962 L53.9529736,50.5896566 L53.827566,50.4844151 L53.6958566,50.3735019 L52.852034,51.3742415 L52.1021094,52.1903358 L51.3061811,52.9780717 L50.4617283,53.7248453 L49.6179057,54.4697283 L48.7343811,55.1396189 L47.8199774,55.7887132 L46.8872981,56.4126 L45.9105057,56.9867019 L44.9286717,57.5166906 L43.9247811,58.0208415 L42.9032453,58.4758377 L41.8565019,58.8829396 L40.8078679,59.2434075 L39.7132302,59.5805585 L38.6469509,59.8672943 L37.551683,60.0834491 L36.4330981,60.2996038 L35.3214453,60.4432868 L34.2072717,60.5397057 L33.089317,60.5882302 L31.9688415,60.6121774 L30.8584491,60.5882302 L29.7442755,60.4918113 L28.6250604,60.3714453 L27.5096264,60.2044453 L26.4143585,59.9876604 L25.3222415,59.7469283 L24.2307547,59.4356151 L23.1625849,59.1003547 L22.1126906,58.6913623 L22.1139509,58.6913623 L21.0867434,58.283 L20.0626868,57.8040566 L19.0632075,57.3005358 L18.0845245,56.7251736 L17.1468038,56.1472906 L16.2147547,55.5234038 L15.3060226,54.8535132 L14.4395132,54.1319472 L14.3292302,54.2642868 L14.4407736,54.1325774 L13.5944302,53.4116415 L12.7777057,52.6453321 L12.0044642,51.8298679 L11.2513887,50.9898264 L10.5449472,50.1239472 L9.86119245,49.2353811 L9.2240717,48.3260189 L8.60900755,47.3643509 L8.03931698,46.4039434 L7.51752075,45.4221094 L7.03731698,44.4138075 L6.58295094,43.3828189 L6.19664528,42.327883 L5.83176604,41.269166 L5.51289057,40.1896528 L5.23938868,39.1107698 L5.01252075,38.0066792 L4.82976604,36.9019585 L4.69301509,35.7997585 L4.60163774,34.6710906 L4.55563396,33.5443132 L4.55563396,32.4389623 L4.60163774,31.3128151 L4.69301509,30.1847774 L4.82976604,29.0806868 L5.01252075,27.9765962 L5.23875849,26.8750264 L5.51415094,25.7911019 L5.81033962,24.7115887 L6.17395849,23.6566528 L6.56089434,22.6004566 L7.01463019,21.5707283 L7.49420377,20.5599057 L8.01726038,19.5534943 L8.58632075,18.593717 L9.17995849,17.6566264 L9.81707925,16.7207962 L10.4983132,15.8347509 L11.2060151,14.9695019 L11.9578302,14.1275698 L12.7317019,13.3139962 L13.5509472,12.5464264 L14.3928792,11.8021736 L15.2568679,11.1077057 L16.1700113,10.4352943 L17.080634,9.81077736 L18.0372604,9.21146792 L19.0172038,8.65816226 L19.9952566,8.13132453 L21.0167925,7.67695849 L22.0704679,7.24275849 L23.1165811,6.8356566 L24.1866415,6.49850566 L25.2573321,6.18656226 L26.3488189,5.9231434 L27.4409358,5.70761887 L28.5551094,5.53935849 L29.6705434,5.41962264 L30.7897585,5.34778113 L31.9077132,5.29862642 L33.019366,5.29862642 L34.1360604,5.3717283 L34.1467736,5.19968679 L34.1322792,5.3717283 L35.2533849,5.46688679 L36.3669283,5.61056981 L37.4823623,5.80340755 L38.5782604,6.04350943 L39.6697472,6.3069283 L40.7391774,6.64344906 L41.7878113,7.00328679 L42.8345547,7.41038868 L43.8579811,7.86664528 L44.8839283,8.37016604 L45.8619811,8.89826415 L46.8186075,9.47488679 L47.7550679,10.0760868 L48.6864868,10.7232906 L49.5719019,11.4164981 L50.4182453,12.1405849 L51.2608075,12.8829472 L52.0561057,13.6732038 L52.8072906,14.4892981 L53.5370491,15.3312302 L54.2416,16.2179057 L54.9020377,17.1278981 L55.5183623,18.0656189 L56.1113698,19.027917 L56.656483,19.9858038 L57.1568528,20.9941057 L57.6357962,22.0244642 L58.0447887,23.0554528 L58.4329849,24.1148 L58.7745472,25.170366 L59.0701057,26.2479887 L59.3209208,27.3508189 L59.5257321,28.4568 L59.6851698,29.5596302 L59.799234,30.6870377 L59.8672943,31.7911283 L59.8931321,33.0981396 L60.2283925,33.0918377 L60.2283925,32.7464943 L60.0651736,32.7433434 L60.0588717,33.0886868 L60.2214604,33.0918377 L60.2246113,33.0918377 L60.3916113,33.0886868 L60.564283,33.0849057 L60.5365547,31.7634 L60.4684943,30.6334717 L60.3519094,29.4783358 L60.1874302,28.346517 L59.9775774,27.2165887 L59.7217208,26.0860302 L59.4173396,24.9781585 L59.0682151,23.8967547 L58.6724566,22.8172415 L58.2514906,21.7597849 L57.7612038,20.7023283 L57.2494906,19.6700792 L56.6879925,18.6844642 L56.0842717,17.7051509 L55.4553434,16.746634 L54.7766302,15.811434 L54.0538038,14.9020717 L53.3089208,14.0431245 L52.5400906,13.2074943 L51.7195849,12.3939208 L50.858117,11.6326528 L49.9972792,10.8972226 L49.0853962,10.1832189 L48.1275094,9.51836981 L47.1734038,8.90456604 L46.1953509,8.31533962 L45.1908302,7.77400755 L44.1428264,7.2591434 L43.0923019,6.79091321 L42.0178302,6.37309811 L40.9490302,6.00506792 L39.8499811,5.66035472 L38.7282453,5.39000377 L37.6109208,5.14486038 L36.4671283,4.94761132 L35.3233358,4.80014717 L34.1852151,4.70246792 L33.0395321,4.62810566 L31.8925887,4.62810566 L30.7532075,4.67726038 L29.6138264,4.75036226 L28.4687736,4.87324906 L27.3249811,5.04592075 L26.2051358,5.26711698 L25.0846604,5.53746792 L23.9919132,5.8563434 L22.8934943,6.2010566 L21.8215434,6.6188717 L20.7521132,7.06000377 L19.6990679,7.52886415 L18.6945472,8.06956604 L17.6931774,8.63421509 L16.713234,9.24927925 L15.7811849,9.88766038 L14.8491358,10.5751962 L13.9612,11.2892 L13.0984717,12.0504679 L12.2584302,12.8382038 L11.4637623,13.6744642 L10.6955623,14.5340415 L9.97336604,15.417566 L9.27322642,16.3275585 L8.61972075,17.2873358 L8.01473962,18.2427019 L7.43118491,19.2276868 L6.89300377,20.2611962 L6.40460755,21.2915547 L5.93763774,22.3496415 L5.54187925,23.4310453 L5.16817736,24.5137094 L4.86442642,25.6209509 L4.58525283,26.7237811 L4.35208302,27.8549698 L4.16554717,28.9836377 L4.02501509,30.1160868 L3.93111698,31.2718528 L3.8857434,32.4263585 L3.8857434,33.556917 L3.93111698,34.712683 L4.02501509,35.8684491 L4.16554717,36.9983774 L4.35208302,38.1289358 L4.58462264,39.2607547 L4.86568679,40.3667358 L5.19212453,41.4746075 L5.56456604,42.5509698 L5.96158491,43.6342642 L6.42792453,44.6923509 L6.91758113,45.7239698 L7.45450189,46.7335321 L8.03742642,47.7159962 L8.66635472,48.6984604 L9.32049057,49.6336604 L10.0193698,50.5430226 L10.7421962,51.425917 L11.5116566,52.2854943 L12.3038038,53.1211245 L13.146366,53.9113811 L14.0065736,54.6455509 L14.0084642,54.6468113 L14.8919887,55.3828717 L15.8290792,56.0729283 L16.7844453,56.7119396 L17.7379208,57.3005358 L18.7405509,57.8903925 L19.7702792,58.4077774 L20.8201736,58.8993245 L21.8662868,59.3158792 L21.866917,59.3165094 L22.9388679,59.7336943 L24.0366566,60.0784075 L25.1571321,60.3985434 L26.2763472,60.644317 L27.3936717,60.8655132 L28.5412453,61.0375547 L29.6799962,61.1591811 L30.8218981,61.2587509 L31.9688415,61.2833283 L33.1101132,61.2587509 L34.2494943,61.208966 L35.3932868,61.1106566 L36.5402302,60.9625623 L37.6827623,60.7419962 L38.7988264,60.5208 L39.8985057,60.2258717 L41.0158302,59.8811585 L42.0877811,59.5137585 L43.1609925,59.0953132 L44.2127774,58.627083 L45.2387245,58.1115887 L46.2394642,57.571517 L47.2452453,56.9810302 L48.2006113,56.3420189 L49.1307698,55.6796906 L50.0426528,54.9890038 L50.9053811,54.2277358 L51.7655887,53.4696189 L52.5842038,52.6554151 L53.3555547,51.8185245 L54.0991774,50.9362604 L54.822634,50.0521057 L55.5000868,49.1156453 L56.1302755,48.1571283 L56.736517,47.1727736 L57.2734377,46.1638415 L57.7838906,45.1360038 L58.2760679,44.1031245 L58.6945132,43.0210906 L59.0921623,41.9396868 L59.4179698,40.8570226 L59.7217208,39.7529321 L59.9775774,38.6217434 L60.1874302,37.4918151 L60.3519094,36.3599962 L60.4684943,35.2048604 L60.5365547,34.0743019 L60.5611321,32.9204264 L60.5611321,32.9160151 L60.5611321,32.7395623 L60.2214604,32.7464943 L60.2246113,32.919166 L60.2283925,32.7464943 L60.2246113,32.919166 L60.2283925,33.0918377 L60.3916113,33.0886868 L60.3884604,32.9160151 L60.2157887,32.9160151 L60.2157887,32.9166453 L60.1924717,34.0604377 L60.1244113,35.1771321 L60.0090868,36.3177736 L59.8471283,37.4357283 L59.6397962,38.5517925 L59.3864604,39.669117 L59.0864906,40.7618642 L58.7644642,41.830034 L58.3712264,42.8994642 L57.959083,43.9670038 L57.4738377,44.9853887 L56.967166,46.0062943 L56.4371774,47.0013623 L55.8384981,47.972483 L55.2165019,48.9196566 L54.5491321,49.8422528 L53.8344981,50.7156943 L53.0965472,51.589766 L52.3359094,52.4159434 L51.5292679,53.2175434 L50.6772528,53.9693585 L49.8246075,54.7218038 L48.9272189,55.4017774 L48.0046226,56.0578038 L47.0612302,56.6892528 L46.0705736,57.270917 L45.0792868,57.8059472 L44.0640528,58.3151396 L43.0286528,58.7770679 L41.9693057,59.1892113 L40.9093283,59.5534604 L39.8020868,59.8943925 L38.7213132,60.1849094 L37.6147019,60.4035849 L37.6153321,60.4035849 L36.4847736,60.6216302 L35.3554755,60.7684642 L34.2280679,60.864883 L33.0994,60.9140377 L31.9688415,60.9379849 L30.8408038,60.9140377 L29.7121358,60.8157283 L28.5840981,60.6953623 L27.4529094,60.5258415 L26.3481887,60.3065358 L25.2422075,60.0645434 L24.1362264,59.7481887 L23.0535623,59.4078868 L21.9923245,58.9951132 L21.9935849,58.9957434 L20.9569245,58.5823396 L19.919634,58.0970943 L18.9056604,57.5872717 L17.9150038,57.0049774 L16.9709811,56.4214226 L16.0269585,55.7906038 L15.1049925,55.1106302 L14.2284,54.3821321 L14.1187472,54.5144717 L14.2302906,54.3833925 L13.3770151,53.6542642 L12.5470566,52.8766113 L11.7643623,52.0510642 L11.0037245,51.2009396 L10.2897208,50.3287585 L9.59903396,49.4301094 L8.95309057,48.5062528 L8.33172453,47.5357623 L7.75510189,46.5640113 L7.2257434,45.5689434 L6.7411283,44.5486679 L6.28109057,43.5044453 L5.88911321,42.4350151 L5.52045283,41.369366 L5.19842642,40.2753585 L4.9211434,39.1832415 L4.69112453,38.0665472 L4.50647925,36.9498528 L4.36846792,35.8331585 L4.27583019,34.6918868 L4.2304566,33.5499849 L4.2304566,32.4332906 L4.27583019,31.2920189 L4.36846792,30.1513774 L4.50647925,29.0327925 L4.69112453,27.9179887 L4.92177358,26.8006642 L5.19842642,25.7091774 L5.49776604,24.6158 L5.86768679,23.5463698 L6.25777358,22.4788302 L6.71844151,21.4352377 L7.20179623,20.4149623 L7.73241509,19.395317 L8.30903774,18.4229358 L8.90771698,17.4763925 L9.5524,16.5304792 L10.243717,15.6324604 L10.9577208,14.7577585 L11.7183585,13.907634 L12.501683,13.082717 L13.3303811,12.3056943 L14.1836566,11.5532491 L15.0596189,10.8486981 L15.9815849,10.1687245 L16.9016604,9.53790566 L17.8702604,8.92977358 L18.8602868,8.37268679 L19.8509434,7.83828679 L20.8888642,7.37635849 L21.9475811,6.94026792 L23.0081887,6.52623396 L24.0908528,6.18719245 L25.173517,5.87083774 L26.2788679,5.60489811 L27.3842189,5.38559245 L28.5128868,5.2160717 L29.6428151,5.09381509 L30.7708528,5.02197358 L31.8995208,4.97281887 L33.0294491,4.97281887 L34.158117,5.04655094 L35.2880453,5.14296981 L36.416083,5.28917358 L37.5447509,5.4832717 L38.6519925,5.72652453 L38.6891736,5.55826415 L38.6488415,5.72589434 L39.7573434,5.99309434 L40.8400075,6.33213585 L41.8999849,6.69701509 L42.9593321,7.10915849 L43.9959925,7.57171698 L45.0326528,8.08027925 L46.0245698,8.61530943 L46.9906491,9.19760377 L47.9359321,9.80510566 L48.8805849,10.4611321 L49.7786038,11.1644226 L50.6318792,11.8935509 L51.4838943,12.6459962 L52.291166,13.4463358 L53.0511736,14.2725132 L53.7884943,15.1220075 L54.5018679,16.0200264 L55.1711283,16.9419925 L55.7931245,17.8904264 L56.3918038,18.860917 L56.9444792,19.8320377 L57.4498906,20.851683 L57.9351358,21.8965358 L58.3498,22.9401283 L58.7424075,24.0089283 L59.0871208,25.0764679 L59.3864604,26.1698453 L59.6397962,27.2859094 L59.8471283,28.4026038 L60.0090868,29.5199283 L60.1244113,30.6612 L60.1924717,31.7772642 L60.2157887,32.919166 L60.3884604,32.9160151 L60.3846792,32.7433434 L60.2246113,32.7464943 L60.0651736,32.7433434 L60.0588717,33.0886868 L60.2214604,33.0918377 L60.2246113,32.919166 L60.2214604,32.7464943 L60.0588717,32.7496453 L60.0620226,32.922317 L60.2340642,32.919166 L60.2113774,31.7772642 L60.143317,30.6593094 L60.0279925,29.5180377 L59.866034,28.4007132 L59.6580717,27.2814981 L59.4047358,26.1635434 L59.104766,25.0714264 L58.7587925,24.0019962 L58.3668151,22.932566 L57.9527811,21.8883434 L57.468166,20.8447509 L56.9614943,19.8238453 L56.4081887,18.8520943 L55.8095094,17.8809736 L55.1862528,16.9312792 L54.5169925,16.0093132 L53.8023585,15.110034 L53.0650377,14.2599094 L52.3044,13.4331019 L51.4958679,12.6308717 L50.644483,11.8796868 L49.7905774,11.1492981 L48.8919283,10.4447472 L47.9453849,9.78872075 L47.0007321,9.18184906 L46.0333925,8.59892453 L45.0421057,8.06326415 L44.0041849,7.5540717 L42.9662642,7.09151321 L41.9062868,6.67936981 L40.8450491,6.31512075 L39.7623849,5.97418868 L38.6545132,5.70761887 L37.5485321,5.46499623 L36.419234,5.26963774 L35.2899358,5.12343396 L34.1600075,5.02827547 L33.0300792,4.95391321 L31.8995208,4.95391321 L30.7721132,5.00306792 L29.6409245,5.07553962 L28.5116264,5.19716604 L27.3816981,5.36794717 L26.2750868,5.58599245 L25.1691057,5.85319245 L24.0845509,6.16954717 L23.0018868,6.50984906 L21.9425396,6.92262264 L20.8806717,7.35997358 L19.8433811,7.8212717 L18.8502038,8.35630189 L17.8608075,8.91464906 L16.8922075,9.52215094 L15.9702415,10.1536 L15.0470151,10.8335736 L14.1704226,11.5387547 L13.3184075,12.2912 L12.4878189,13.069483 L11.7038642,13.8944 L10.9438566,14.7451547 L10.2279623,15.6204868 L9.53727547,16.5191358 L8.89133208,17.4669396 L8.29265283,18.4128528 L7.71603019,19.3864943 L7.18541132,20.4067698 L6.70142642,21.4264151 L6.24075849,22.4718981 L5.84878113,23.5413283 L5.48075094,24.6101283 L5.18015094,25.7028755 L4.90286792,26.796883 L4.67284906,27.9135774 L4.48820377,29.0315321 L4.35019245,30.1494868 L4.25755472,31.2920189 L4.21155094,32.4320302 L4.21155094,33.5512453 L4.25755472,34.6918868 L4.35019245,35.8344189 L4.48820377,36.9511132 L4.67284906,38.0696981 L4.90349811,39.1876528 L5.18015094,40.2810302 L5.50280755,41.3744075 L5.87146792,42.4432075 L6.26281509,43.5113774 L6.72411321,44.5574906 L7.20935849,45.5771358 L7.73871698,46.5734642 L8.31533962,47.5452151 L8.93733585,48.5175962 L9.58327925,49.4401925 L10.2745962,50.3382113 L10.9892302,51.2141736 L11.7504981,52.0636679 L12.5344528,52.8892151 L13.3637811,53.6687585 L14.2189472,54.3966264 L15.0936491,55.1251245 L16.0162453,55.8057283 L16.9602679,56.4378075 L17.9055509,57.0201019 L18.8980981,57.6042868 L19.9120717,58.1134792 L20.9506226,58.5999849 L21.9866528,59.0121283 L23.0472604,59.4261623 L24.1311849,59.7664642 L25.2377962,60.0821887 L26.3437774,60.3254415 L27.4497585,60.544117 L28.5815774,60.7136377 L29.7108755,60.8352642 L30.8408038,60.9323132 L31.9688415,60.9575208 L33.1000302,60.9323132 L34.2293283,60.8837887 L35.3579962,60.7867396 L36.4879245,60.6405358 L37.6172226,60.4218604 L37.618483,60.4218604 L38.7257245,60.2031849 L39.8090189,59.9120377 L40.9156302,59.5717358 L41.9749774,59.2074868 L43.0355849,58.794083 L44.0728755,58.3321547 L45.0868491,57.8229623 L46.0800264,57.2873019 L47.0713132,56.7043774 L48.0153358,56.0729283 L48.9385623,55.4175321 L49.8365811,54.7362981 L50.6904868,53.9838528 L51.5425019,53.2301472 L52.3504038,52.4298075 L53.1110415,51.6023698 L53.8483623,50.7276679 L53.7166528,50.6161245 L53.6057396,50.7484642 L53.730517,50.8537057 L53.8420604,50.721366 L53.951083,50.5883962 L53.8231547,50.4844151 L53.7147623,50.6186453 L53.8483623,50.7276679 L54.5629962,49.8542264 L55.2316264,48.9303698 L55.854883,47.982566 L56.4529321,47.0108151 L56.9841811,46.0132264 L57.4908528,44.9942113 L57.9760981,43.9739358 L58.3901321,42.9045057 L58.7814792,41.8363358 L59.104766,40.7669057 L59.4047358,39.6741585 L59.6580717,38.5562038 L59.866034,37.4369887 L60.0279925,36.3202943 L60.143317,35.1796528 L60.2107472,34.0604377 L60.2340642,32.919166 L60.0620226,32.9160151 L60.0588717,33.0886868 L60.2214604,33.0918377 L60.2246113,33.0918377 L60.2283925,33.0918377 L60.2246113,32.919166 Z" id="Shape" fill="#F05323" sketch:type="MSShapeGroup" mask="url(#mask-6)"></path>
                        </g>
                        <g>
                            <mask id="mask-8" sketch:name="SVGID_1_" fill="white">
                                <use xlink:href="#path-7"></use>
                            </mask>
                            <g id="SVGID_1_"></g>
                            <path d="M23.5804,42.1722264 L23.5804,31.0248189 L14.6846566,31.0248189 L14.6846566,28.9603208 L14.7067132,28.9603208 L23.5804,28.9603208 L23.5804,24.4910226 L23.533766,24.4910226 L10.2128377,24.4910226 L10.2128377,35.5180642 L19.1104717,35.5180642 L19.1104717,37.7772906 L10.2128377,37.7772906 L10.2128377,42.1722264 L23.5804,42.1722264 Z" id="Shape" fill="#FFFFFF" sketch:type="MSShapeGroup" mask="url(#mask-8)"></path>
                        </g>
                        <g>
                            <mask id="mask-10" sketch:name="SVGID_1_" fill="white">
                                <use xlink:href="#path-9"></use>
                            </mask>
                            <g id="SVGID_1_"></g>
                            <path d="M23.5804,42.1722264 L23.6232528,42.1722264 L23.6232528,30.981966 L14.7275094,30.981966 L14.7275094,28.9603208 L14.6846566,28.9603208 L14.6846566,29.0031736 L14.7067132,29.0031736 L23.6232528,29.0031736 L23.6232528,24.4481698 L23.533766,24.4481698 L10.1693547,24.4481698 L10.1693547,35.5615472 L19.0669887,35.5615472 L19.0669887,37.7338075 L10.1693547,37.7338075 L10.1693547,42.2157094 L23.6232528,42.2157094 L23.6232528,42.1722264 L23.5804,42.1722264 L23.5804,42.1293736 L10.2556906,42.1293736 L10.2556906,37.8201434 L19.1533245,37.8201434 L19.1533245,35.4752113 L10.2556906,35.4752113 L10.2556906,24.5345057 L23.533766,24.5345057 L23.5375472,24.5345057 L23.5375472,28.9174679 L14.7067132,28.9174679 L14.6846566,28.9174679 L14.6411736,28.9174679 L14.6411736,31.0676717 L23.5375472,31.0676717 L23.5375472,42.1722264 L23.5804,42.1722264 L23.5804,42.1293736 L23.5804,42.1722264 Z" id="Shape" fill="#FFFFFF" sketch:type="MSShapeGroup" mask="url(#mask-10)"></path>
                        </g>
                        <g>
                            <mask id="mask-12" sketch:name="SVGID_1_" fill="white">
                                <use xlink:href="#path-11"></use>
                            </mask>
                            <g id="SVGID_1_"></g>
                            <path d="M23.5804,42.1722264 L23.5804,42.1722264 L23.5804,31.0248189 L14.6846566,31.0248189 L14.6846566,28.9603208 L14.7067132,28.9603208 L23.5804,28.9603208 L23.5804,24.4910226 L23.533766,24.4910226 L10.2128377,24.4910226 L10.2128377,35.5180642 L19.1104717,35.5180642 L19.1104717,37.7772906 L10.2128377,37.7772906 L10.2128377,42.1722264 L23.5804,42.1722264 L10.2128377,42.1722264 L10.2128377,37.7772906 L19.1104717,37.7772906 L19.1104717,35.5180642 L10.2128377,35.5180642 L10.2128377,24.4910226 L23.533766,24.4910226 L23.5804,24.4910226 L23.5804,28.9603208 L14.7067132,28.9603208 L14.6846566,28.9603208 L14.6846566,31.0248189 L23.5804,31.0248189 L23.5804,42.1722264 Z" id="Shape" fill="#FFFFFF" sketch:type="MSShapeGroup" mask="url(#mask-12)"></path>
                        </g>
                        <g>
                            <mask id="mask-14" sketch:name="SVGID_1_" fill="white">
                                <use xlink:href="#path-13"></use>
                            </mask>
                            <g id="SVGID_1_"></g>
                            <path d="M23.5804,42.1722264 L23.7530717,42.1722264 L23.7530717,30.8527774 L14.8566981,30.8527774 L14.8566981,28.9603208 L14.6846566,28.9603208 L14.6846566,29.1329925 L14.7067132,29.1329925 L23.7530717,29.1329925 L23.7530717,24.3183509 L23.533766,24.3183509 L10.040166,24.3183509 L10.040166,35.6907358 L18.9378,35.6907358 L18.9378,37.6046189 L10.040166,37.6046189 L10.040166,42.3448981 L23.5804,42.3448981 L23.5804,42.0001849 L10.3848792,42.0001849 L10.3848792,37.9493321 L19.2825132,37.9493321 L19.2825132,35.3453925 L10.3848792,35.3453925 L10.3848792,24.6636943 L23.533766,24.6636943 L23.5804,24.6636943 L23.5804,24.4910226 L23.4083585,24.4910226 L23.4083585,28.7882792 L14.7067132,28.7882792 L14.6846566,28.7882792 L14.5119849,28.7882792 L14.5119849,31.1974906 L23.4083585,31.1974906 L23.4083585,42.1722264 L23.7530717,42.1722264 L23.5804,42.1722264 L23.7530717,42.1722264 L23.7530717,30.8527774 L14.8566981,30.8527774 L14.8566981,28.9603208 L14.6846566,28.9603208 L14.6846566,29.1329925 L14.7067132,29.1329925 L23.7530717,29.1329925 L23.7530717,24.3183509 L23.533766,24.3183509 L10.040166,24.3183509 L10.040166,35.6907358 L18.9378,35.6907358 L18.9378,37.6046189 L10.040166,37.6046189 L10.040166,42.3448981 L23.5804,42.3448981 L23.5804,42.0001849 L10.3848792,42.0001849 L10.3848792,37.9493321 L19.2825132,37.9493321 L19.2825132,35.3453925 L10.3848792,35.3453925 L10.3848792,24.6636943 L23.533766,24.6636943 L23.5804,24.6636943 L23.5804,24.4910226 L23.4083585,24.4910226 L23.4083585,28.7882792 L14.7067132,28.7882792 L14.6846566,28.7882792 L14.5119849,28.7882792 L14.5119849,31.1974906 L23.4083585,31.1974906 L23.4083585,42.1722264 L23.7530717,42.1722264 L23.5804,42.1722264 Z" id="Shape" fill="#FFFFFF" sketch:type="MSShapeGroup" mask="url(#mask-14)"></path>
                        </g>
                        <g>
                            <mask id="mask-16" sketch:name="SVGID_1_" fill="white">
                                <use xlink:href="#path-15"></use>
                            </mask>
                            <g id="SVGID_1_"></g>
                            <path d="M39.1605547,42.3178 L39.1605547,24.6365962 L34.7580566,24.6365962 L34.7580566,37.922234 L30.3801358,37.922234 L30.3801358,24.6365962 L25.8623132,24.6365962 L25.8623132,42.3178 L39.1605547,42.3178 Z" id="Shape" fill="#FFFFFF" sketch:type="MSShapeGroup" mask="url(#mask-16)"></path>
                        </g>
                        <g>
                            <mask id="mask-18" sketch:name="SVGID_1_" fill="white">
                                <use xlink:href="#path-17"></use>
                            </mask>
                            <g id="SVGID_1_"></g>
                            <path d="M39.1605547,42.3178 L39.1605547,42.3178 L39.1605547,24.6365962 L34.7580566,24.6365962 L34.7580566,37.922234 L30.3801358,37.922234 L30.3801358,24.6365962 L25.8623132,24.6365962 L25.8623132,42.3178 L39.1605547,42.3178 L25.8623132,42.3178 L25.8623132,24.6365962 L30.3801358,24.6365962 L30.3801358,37.922234 L34.7580566,37.922234 L34.7580566,24.6365962 L39.1605547,24.6365962 L39.1605547,42.3178 Z" id="Shape" fill="#FFFFFF" sketch:type="MSShapeGroup" mask="url(#mask-18)"></path>
                        </g>
                        <g>
                            <mask id="mask-20" sketch:name="SVGID_1_" fill="white">
                                <use xlink:href="#path-19"></use>
                            </mask>
                            <g id="SVGID_1_"></g>
                            <path d="M39.1605547,42.3178 L39.2034075,42.3178 L39.2034075,24.5931132 L34.7145736,24.5931132 L34.7145736,37.8793811 L30.4229887,37.8793811 L30.4229887,24.5931132 L25.8188302,24.5931132 L25.8188302,42.361283 L39.1605547,42.361283 L39.1605547,42.2749472 L25.905166,42.2749472 L25.905166,24.6794491 L30.3366528,24.6794491 L30.3366528,37.965717 L34.8009094,37.965717 L34.8009094,24.6794491 L39.1177019,24.6794491 L39.1177019,42.3178 L39.2034075,42.3178 L39.1605547,42.3178 L39.2034075,42.3178 L39.2034075,24.5931132 L34.7145736,24.5931132 L34.7145736,37.8793811 L30.4229887,37.8793811 L30.4229887,24.5931132 L25.8188302,24.5931132 L25.8188302,42.361283 L39.1605547,42.361283 L39.1605547,42.2749472 L25.905166,42.2749472 L25.905166,24.6794491 L30.3366528,24.6794491 L30.3366528,37.965717 L34.8009094,37.965717 L34.8009094,24.6794491 L39.1177019,24.6794491 L39.1177019,42.3178 L39.2034075,42.3178 L39.1605547,42.3178 Z" id="Shape" fill="#FFFFFF" sketch:type="MSShapeGroup" mask="url(#mask-20)"></path>
                        </g>
                        <g>
                            <mask id="mask-22" sketch:name="SVGID_1_" fill="white">
                                <use xlink:href="#path-21"></use>
                            </mask>
                            <g id="SVGID_1_"></g>
                            <path d="M45.8670226,42.2699057 L45.8670226,42.3178 L41.4657849,42.3178 L41.4657849,24.6365962 L54.7633962,24.6365962 L54.7633962,42.3178 L50.2462038,42.3178 L50.2462038,29.0327925 L45.8670226,29.0327925 L45.8670226,42.2699057 Z" id="Shape" fill="#FFFFFF" sketch:type="MSShapeGroup" mask="url(#mask-22)"></path>
                        </g>
                        <g>
                            <mask id="mask-24" sketch:name="SVGID_1_" fill="white">
                                <use xlink:href="#path-23"></use>
                            </mask>
                            <g id="SVGID_1_"></g>
                            <path d="M45.8670226,42.2699057 L45.8670226,42.2699057 L45.8670226,42.3178 L41.4657849,42.3178 L41.4657849,24.6365962 L54.7633962,24.6365962 L54.7633962,42.3178 L50.2462038,42.3178 L50.2462038,29.0327925 L45.8670226,29.0327925 L45.8670226,42.2699057 L45.8670226,29.0327925 L50.2462038,29.0327925 L50.2462038,42.3178 L54.7633962,42.3178 L54.7633962,24.6365962 L41.4657849,24.6365962 L41.4657849,42.3178 L45.8670226,42.3178 L45.8670226,42.2699057 Z" id="Shape" fill="#FFFFFF" sketch:type="MSShapeGroup" mask="url(#mask-24)"></path>
                        </g>
                        <g>
                            <mask id="mask-26" sketch:name="SVGID_1_" fill="white">
                                <use xlink:href="#path-25"></use>
                            </mask>
                            <g id="SVGID_1_"></g>
                            <path d="M45.8670226,42.2699057 L45.8235396,42.2699057 L45.8235396,42.2749472 L41.5092679,42.2749472 L41.5092679,24.6800792 L54.7205434,24.6800792 L54.7205434,42.2749472 L50.2890566,42.2749472 L50.2890566,28.9893094 L45.8235396,28.9893094 L45.8235396,42.2699057 L45.9098755,42.2699057 L45.9098755,29.0762755 L50.2033509,29.0762755 L50.2033509,42.361283 L54.8068792,42.361283 L54.8068792,24.5937434 L41.4229321,24.5937434 L41.4229321,42.361283 L45.9098755,42.361283 L45.9098755,42.2699057 L45.8235396,42.2699057 L45.8670226,42.2699057 L45.8235396,42.2699057 L45.8235396,42.2749472 L41.5092679,42.2749472 L41.5092679,24.6800792 L54.7205434,24.6800792 L54.7205434,42.2749472 L50.2890566,42.2749472 L50.2890566,28.9893094 L45.8235396,28.9893094 L45.8235396,42.2699057 L45.9098755,42.2699057 L45.9098755,29.0762755 L50.2033509,29.0762755 L50.2033509,42.361283 L54.8068792,42.361283 L54.8068792,24.5937434 L41.4229321,24.5937434 L41.4229321,42.361283 L45.9098755,42.361283 L45.9098755,42.2699057 L45.8235396,42.2699057 L45.8670226,42.2699057 Z" id="Shape" fill="#FFFFFF" sketch:type="MSShapeGroup" mask="url(#mask-26)"></path>
                        </g>
                    </g>
                    <g transform="translate(63.649057, 15.124528)" sketch:type="MSShapeGroup">
                        <rect id="Rectangle-path" x="0.0611283019" y="0.770090566" width="247.765611" height="39.7018868"></rect>
                        <path d="M32.3507358,32.5309698 L29.9686226,34.9508943 L25.2422075,30.2622906 C22.9735283,31.9259887 20.0242453,32.8712717 16.4706113,32.8712717 C7.05622264,32.8712717 2.14075094,26.4811585 2.14075094,17.1802038 C2.14075094,7.87861887 7.09403396,1.48913585 16.4706113,1.48913585 C25.9228113,1.48913585 30.838283,7.84143774 30.838283,17.1802038 C30.838283,21.4900642 29.779566,25.1577623 27.7005736,27.842366 L32.3507358,32.5309698 L32.3507358,32.5309698 Z M16.5084226,4.89215472 C8.87053585,4.89215472 5.84626038,10.3369849 5.84626038,17.180834 C5.84626038,23.9106189 8.90897736,29.468883 16.5084226,29.468883 C18.9283472,29.468883 20.818283,28.9395245 22.3685472,27.9942415 L22.9735283,27.9564302 L18.0580566,23.0787698 L20.4779811,20.6588453 L25.2800189,25.460883 L25.3178302,24.8937132 C26.5656038,22.7762792 27.1327736,20.0916755 27.1327736,17.180834 C27.1327736,10.5260415 24.1834906,4.89215472 16.5084226,4.89215472 L16.5084226,4.89215472 Z" id="Shape" fill="#000000"></path>
                        <path d="M54.8484717,32.4931585 L51.3698302,32.4931585 L51.3698302,29.5060642 L51.2942075,29.5060642 C49.4036415,31.6613094 46.9080943,32.8712717 43.8460075,32.8712717 C37.1155925,32.8712717 34.2419321,29.2791962 34.2419321,23.4946943 L34.2419321,8.67328679 L37.7205736,8.67328679 L37.7205736,23.3056377 C37.7205736,26.8220906 38.7414792,29.5445057 44.2234906,29.5445057 C48.2314906,29.5445057 51.3698302,27.3136377 51.3698302,22.8140906 L51.3698302,8.67328679 L54.8484717,8.67328679 L54.8484717,32.4931585 L54.8484717,32.4931585 Z" id="Shape" fill="#000000"></path>
                        <path d="M61.5032642,5.49713585 C59.9908113,5.49713585 59.2345849,4.47623019 59.2345849,3.00221887 C59.2345849,1.52757736 60.0286226,0.506671698 61.5032642,0.506671698 C63.015717,0.506671698 63.7719434,1.52757736 63.7719434,3.00221887 C63.7719434,4.47623019 62.9779057,5.49713585 61.5032642,5.49713585 L61.5032642,5.49713585 Z M63.2425849,32.4931585 L59.7639434,32.4931585 L59.7639434,8.67328679 L63.2425849,8.67328679 L63.2425849,32.4931585 L63.2425849,32.4931585 Z" id="Shape" fill="#000000"></path>
                        <path d="M86.9874642,29.3926302 C84.7565962,31.7369321 81.7695019,32.8712717 78.1396151,32.8712717 C70.463917,32.8712717 66.8346604,27.6911208 66.8346604,20.7722792 C66.8346604,13.7015623 70.9560943,8.29517358 78.2152377,8.29517358 C82.0719925,8.29517358 84.8700302,9.46732453 86.6843434,11.3957019 L84.2272377,13.8534377 C82.9416528,12.4544189 80.7864075,11.5847585 78.2152377,11.6225698 C72.8844717,11.6603811 70.3133019,15.8196264 70.3133019,20.7729094 C70.3133019,25.5371358 72.5441698,29.5445057 78.1774264,29.5445057 C80.7864075,29.5445057 82.8654,28.7504679 84.5290981,26.9733358 L86.9874642,29.3926302 L86.9874642,29.3926302 Z" id="Shape" fill="#000000"></path>
                        <path d="M93.1128981,32.4931585 L89.6336264,32.4931585 L89.6336264,0.732909434 L93.1128981,0.732909434 L93.1128981,32.4931585 L93.1128981,32.4931585 Z M110.240796,32.4931585 L105.400947,32.4931585 L93.4910113,20.2429208 L104.795966,8.67328679 L109.711438,8.67328679 L98.0283698,20.2807321 L98.0283698,20.3563547 L110.240796,32.4931585 L110.240796,32.4931585 Z" id="Shape" fill="#000000"></path>
                        <path d="M123.51257,32.4931585 L111.753879,32.4931585 L111.753879,1.86724906 L123.323513,1.86724906 C135.309702,1.86724906 137.388694,9.88324906 137.388694,17.1802038 C137.388694,24.5149698 135.346883,32.4931585 123.51257,32.4931585 L123.51257,32.4931585 Z M122.9454,5.27026792 L114.967842,5.27026792 L115.345955,5.64838113 L115.345955,28.7120264 L114.967842,29.0901396 L123.134457,29.0901396 C132.246985,29.0901396 133.683185,23.4946943 133.683185,17.1802038 C133.683185,10.9035245 132.171362,5.27026792 122.9454,5.27026792 L122.9454,5.27026792 Z" id="Shape" fill="#000000"></path>
                        <path d="M162.080117,22.1712981 L142.834785,22.1712981 L143.250709,22.5494113 C143.855691,26.8599019 146.351238,29.5445057 151.191087,29.5445057 C153.800068,29.5445057 156.030936,28.637034 157.731815,26.9733358 L160.189551,29.3932604 C157.88306,31.6619396 154.782532,32.8719019 151.152645,32.8719019 C143.288521,32.8719019 139.658634,27.6917509 139.658634,20.7729094 C139.658634,13.4753245 143.817879,8.29580377 151.0014,8.29580377 C158.525223,8.29580377 162.155109,13.5887585 162.155109,20.7729094 C162.155109,21.3394491 162.117298,21.6797509 162.080117,22.1712981 L162.080117,22.1712981 Z M158.979589,18.9951472 L158.563664,18.617034 C157.996494,14.5334113 155.652192,11.6219396 151.0014,11.6219396 C146.237174,11.6219396 143.893502,14.6468453 143.288521,18.617034 L142.872596,18.9951472 L158.979589,18.9951472 L158.979589,18.9951472 Z" id="Shape" fill="#000000"></path>
                        <path d="M174.746279,32.909083 C171.002958,32.909083 167.070581,31.7369321 164.423789,28.8254604 L166.994958,26.2542906 C169.641121,28.6742151 171.834808,29.5816868 174.632215,29.5816868 C178.867083,29.5816868 180.757649,27.9936113 180.757649,26.1030453 C180.757649,24.5527811 179.850808,23.5318755 176.598404,22.6622151 C176.069045,22.5109698 172.855713,21.5656868 172.363536,21.4150717 C168.166479,20.2429208 165.103762,18.617034 165.103762,14.9493358 C165.103762,11.4706943 168.090226,8.2945434 174.48034,8.2945434 C178.22366,8.2945434 181.437623,9.61793962 183.744113,12.1512981 L181.172943,14.7224679 C179.547057,12.7562792 177.391811,11.6219396 174.48034,11.6219396 C170.359536,11.6219396 168.620215,13.2856377 168.620215,14.8359019 C168.620215,16.2727321 169.980792,17.2180151 173.875358,18.2767321 C174.366906,18.4279774 177.165574,19.2976377 177.694932,19.448883 C182.420717,20.7344679 184.273472,22.8897132 184.273472,25.9524302 C184.274732,29.4304415 181.627309,32.909083 174.746279,32.909083 L174.746279,32.909083 Z" id="Shape" fill="#000000"></path>
                        <path d="M189.606128,5.49713585 C188.093675,5.49713585 187.337449,4.47623019 187.337449,3.00221887 C187.337449,1.52757736 188.131487,0.506671698 189.606128,0.506671698 C191.118581,0.506671698 191.874808,1.52757736 191.874808,3.00221887 C191.874808,4.47623019 191.08077,5.49713585 189.606128,5.49713585 L189.606128,5.49713585 Z M191.345449,32.4931585 L187.866808,32.4931585 L187.866808,8.67328679 L191.345449,8.67328679 L191.345449,32.4931585 L191.345449,32.4931585 Z" id="Shape" fill="#000000"></path>
                        <path d="M216.980264,8.67328679 L216.980264,30.414166 C216.980264,36.8799019 213.501623,40.6225925 206.204038,40.6225925 C202.424166,40.6225925 199.208943,39.5638755 196.487789,37.4086302 L198.982706,34.913083 C200.798279,36.4255358 203.634128,37.3330075 206.204038,37.3330075 C211.006706,37.3330075 213.501623,34.7996491 213.501623,30.3757245 L213.501623,27.4642528 L213.42663,27.4642528 C211.497623,29.6566792 208.964894,30.6019623 205.789374,30.6019623 C198.5296,30.6019623 194.936894,26.1780377 194.936894,19.5238755 C194.936894,13.3606302 198.643034,8.2945434 205.789374,8.2945434 C209.003336,8.2945434 211.839185,9.54231698 213.42663,11.5841283 L213.501623,11.5841283 L213.501623,8.6726566 L216.980264,8.6726566 L216.980264,8.67328679 Z M205.939358,11.6219396 C200.798279,11.6219396 198.415536,15.0249585 198.415536,19.5245057 C198.415536,24.2124792 200.911713,27.2751962 205.939358,27.2751962 C211.42263,27.2751962 213.804113,24.0234226 213.804113,19.5245057 C213.804743,14.8737132 211.043887,11.6219396 205.939358,11.6219396 L205.939358,11.6219396 Z" id="Shape" fill="#000000"></path>
                        <path d="M242.805396,32.4931585 L239.326755,32.4931585 L239.326755,18.0498642 C239.326755,14.2687321 238.153974,11.6219396 232.671332,11.6219396 C228.663962,11.6219396 225.375008,13.8528075 225.375008,18.3523547 L225.375008,32.4931585 L221.895736,32.4931585 L221.895736,8.67328679 L225.375008,8.67328679 L225.375008,11.6603811 L225.45,11.6603811 C227.075887,9.61856981 229.986728,8.29517358 233.049445,8.29517358 C239.326755,8.29517358 242.804766,11.5091358 242.804766,17.2936377 L242.804766,32.4931585 L242.805396,32.4931585 Z" id="Shape" fill="#000000"></path>
                    </g>
                    <g transform="translate(306.271698, 15.124528)" sketch:type="MSShapeGroup">
                        <rect id="Rectangle-path" x="0.398909434" y="0.139271698" width="27.1894906" height="14.9984906"></rect>
                        <path d="M6.52686415,1.44313208 L3.92544528,1.44313208 L3.96955849,1.53135849 L3.96955849,7.79228302 L3.13203774,7.79228302 L3.13203774,1.53135849 L3.17552075,1.44313208 L0.574732075,1.44313208 L0.574732075,0.64909434 L6.52623396,0.64909434 L6.52623396,1.44313208 L6.52686415,1.44313208 Z" id="Shape" fill="#000000"></path>
                        <path d="M14.0658113,7.79165283 L13.2282906,7.79165283 L13.2282906,2.53650943 L13.2112755,2.53650943 L12.7348528,3.674 L10.5657434,7.88870189 L10.5480981,7.88870189 L8.35315094,3.62106415 L7.91201887,2.53650943 L7.89500377,2.53650943 L7.89500377,7.79165283 L7.05748302,7.79165283 L7.05748302,0.64909434 L7.80614717,0.64909434 L10.2052755,5.4108 L10.5581811,6.24832075 L10.5751962,6.24832075 L10.9287321,5.4108 L13.3177774,0.64909434 L14.0670717,0.64909434 L14.0670717,7.79165283 L14.0658113,7.79165283 Z" id="Shape" fill="#000000"></path>
                    </g>
                </g>
            </g>
        </g>
    </g>
</svg>